# xmcd CD database file
# Copyright (C) 1993-1998 Ti Kan
#
# Track frame offsets:
# 	150
# 	16575
# 	39522
# 	52422
# 	69447
# 	82797
# 	105110
# 	120525
# 	132450
# 	151800
# 	173247
# 	192372
# 	215397
# 	235537
# 	257435
# 	281547
# 	294822
# 	311022
#
# Disc length: 4360 seconds
#
# Revision: 1
# Processed by: cddbd v1.4b41PL1 Copyright (c) Steve Scherf et al.
# Submitted via: DiscPlay 3.4.1
#
DISCID=e5110612
DTITLE=COLETÂNEA - Brasil 2000 FM - Blues Collection
DYEAR=1900
DGENRE=
TTITLE0=Tired of crying
TTITLE1=Don't burn the Bridge
TTITLE2=I love someone
TTITLE3=Fear no evil
TTITLE4=I'm working on It
TTITLE5=You're gonna make me cry
TTITLE6=I'm a mad man
TTITLE7=How you carry on
TTITLE8=Can't quit my baby
TTITLE9=I love you babe
TTITLE10=Full Moon
TTITLE11=Chains of love
TTITLE12=Drawers Trouble
TTITLE13=Tell me you'll wait for  me
TTITLE14=You don't know what love is
TTITLE15=Never like this before
TTITLE16=Every night of the week
TTITLE17=Do it for Daddy
EXTD=
EXTT0=Smokey Wilson, Jimmy McCracklin and Larry Davis
EXTT1=Otis Clay
EXTT2=Eddie Hinton
EXTT3=Ann Peebles
EXTT4=Larry Davis
EXTT5=The Holmes Brothers
EXTT6=Bynther Smith
EXTT7=Marcia Bell
EXTT8=Smokin'Joe Kubek with Bnois King
EXTT9=barbara Lynn
EXTT10=Dalton reed
EXTT11=Irma Thomas
EXTT12=Chuck Carbo
EXTT13=Charles Brown
EXTT14=Johnny Adams
EXTT15=Angela Strehli
EXTT16=Tracy Nelson
EXTT17=Ommar and The Howlers
PLAYORDER=
